<?xml version="1.0" encoding="UTF-8"?>
<svg id="Capa_2" xmlns="http://www.w3.org/2000/svg" version="1.1" viewBox="0 0 1150 379">
  <!-- Generator: Adobe Illustrator 29.3.1, SVG Export Plug-In . SVG Version: 2.1.0 Build 151)  -->
  <defs>
    <style>
      .st0 {
        fill: none;
      }

      .st1 {
        fill: #0f6ea0;
      }

      .st2 {
        fill: #8dc043;
      }
    </style>
  </defs>
  <g id="Capa_5">
    <polygon class="st1" points="93.9 351.1 135.4 351.1 156.9 169.9 208.6 169.9 212 146.1 68.2 146.1 66 170.5 116 170.5 93.9 351.1"/>
    <g>
      <path class="st1" d="M326.8,273.4s8.4-46-18.9-64.6c-27.3-18.6-68.4-15.6-89.1,0s-36.1,34.9-38.2,78.6,37.8,63,70.8,63.6c13.3.2,28.5-.8,38.3-2.5,16.3-2.9,22.7-7.7,22.7-7.7l-6.9-21.5s-50.6,22.7-76.1-.5c0,0-11.2-7.1-10.7-32.4l108-13h0ZM217.4,268.9s3.6-44.4,34-50.6c24.1-4.8,32.8,6.4,32.9,6.5,0,0,10.3,9.5,7.7,34.7l-74.7,9.4Z"/>
      <path class="st0" d="M284.4,224.8c-.2,0-8.9-11.3-32.9-6.5-30.5,6.1-34,50.6-34,50.6l74.7-9.4c2.6-25.2-7.7-34.7-7.7-34.7Z"/>
    </g>
    <polygon class="st1" points="362.9 146 338.1 351 376.9 351 401.7 146 362.9 146"/>
    <path class="st1" d="M508.5,198s-70.1,0-87.5,11.1l-16,142h39.5l15.3-126.3s12.9-8.2,36.1-1.4l12.6-25.4h0Z"/>
    <g>
      <path class="st1" d="M519.9,220.1c-46.3,47-24.9,129.4,33,130.4,0,0,29.2,1.3,36.9-3.1v3.6h37.1l16.3-148.6s-76.9-29.3-123.2,17.7h0ZM591.4,324.3s-10.1,6.3-32.1,3.6c-22-2.7-34-37.1-17.3-81.9,16.7-44.8,62.1-29.6,62.1-29.6l-12.7,107.9h0Z"/>
      <path class="st0" d="M542,246c-16.7,44.8-4.6,79.2,17.3,81.9,22,2.7,32.1-3.6,32.1-3.6l12.7-107.9s-45.5-15.1-62.1,29.6h0Z"/>
    </g>
    <g>
      <path class="st1" d="M772.8,143.1l-6.9,56.5s-99.3-23.1-112.5,74.3c-13.3,97.3,107.6,74.9,107.6,74.9l26.9-8.2,23.8-197.4h-38.8,0ZM750.1,325.5c-9.4,5.6-22.7,4.8-22.7,4.8-39.3-3.1-35.5-39.4-35.5-39.4,0,0-.4-32.3,15.5-57.4s55.7-16.1,55.7-16.1l-12.9,108.2h0Z"/>
      <path class="st0" d="M707.4,233.5c-15.8,25.1-15.5,57.4-15.5,57.4,0,0-3.8,36.3,35.5,39.4,0,0,13.3.9,22.7-4.8l12.9-108.2s-39.8-9.1-55.7,16.1h0Z"/>
    </g>
    <path class="st2" d="M926.8,287.4s50.5-32.7,76.1-115.9c0,0-74,.7-123.7-29.9-1.1-.7-1.8-2-1.5-3.3s1.2-2.4,5-1c37.8,13.3,61.4,12.9,70,13.7,40.1,3.6,116.4-9.2,138.5-33.3,0,0,30.6-26.2-22.1-53.1l-2-25.2s57,12.8,51.1,59.6c-5.8,46-55.5,65-89.2,70.5,0,0-3.4,35.7-43.2,79.7-39.8,43.9-57.7,43-58.7,43s-3.3-2.3,0-4.7h0Z"/>
    <circle class="st2" cx="1009" cy="102" r="27.3"/>
    <ellipse class="st2" cx="868.1" cy="111.9" rx="9.5" ry="9.9"/>
    <ellipse class="st2" cx="890.4" cy="66.5" rx="9.5" ry="9.9"/>
    <ellipse class="st2" cx="934.5" cy="42.9" rx="9.5" ry="9.9"/>
    <ellipse class="st2" cx="987" cy="35.9" rx="9.5" ry="9.9"/>
    <ellipse class="st2" cx="1039.8" cy="39.4" rx="9.5" ry="9.9"/>
  </g>
</svg>